<svg height="200" viewBox="0 0 52.91667 52.91667" width="200" xmlns="http://www.w3.org/2000/svg"><defs><linearGradient id="a"><stop offset="0" stop-color="#590898"/><stop offset="1" stop-color="#590898" stop-opacity="0"/></linearGradient></defs><g transform="translate(0 -244.08335)" stroke="#590898"><ellipse cx="26.31349" cy="270.68652" rx="24.00149" ry="23.62351" fill="none" stroke-width="1.32292" stroke-linecap="round"/><path d="M19.08818 260.30966l-5.8291 2.38952c-.0715.28653-.11575.58528-.11575.89296 0 2.10184 1.76328 3.80339 3.94394 3.80339s3.95222-1.70155 3.95222-3.80339c0-1.39823-.78554-2.62095-1.95131-3.28248z" fill="#590898" stroke-width=".21536" stroke-linecap="round"/><ellipse cx="15.57896" cy="263.05142" rx="1.18525" ry="1.42051" fill="#ddbeab" stroke-width=".07209" stroke-linecap="round"/><path d="M33.50798 261.27704c-1.00195.69024-1.65365 1.82304-1.65365 3.10059 0 2.10184 1.76329 3.80338 3.94395 3.80338 2.18065 0 3.95222-1.70154 3.95222-3.80338 0-.19684-.0196-.39-.0496-.57878z" fill="#590898" stroke-width=".21536" stroke-linecap="round"/><ellipse cx="34.28883" cy="263.30753" rx="1.18525" ry="1.42051" fill="#ddbeab" stroke-width=".07209" stroke-linecap="round"/><path d="M13.19515 284.09554c2.25347-1.01264 4.62538-1.7614 7.05181-2.22612 2.26214-.43325 4.56984-.61969 6.87285-.58617 2.26018.0329 4.51986.27786 6.7237.78045 2.00806.45794 3.96734 1.12948 5.83412 1.99961" fill="none" stroke-width="1.05833"/></g></svg>