<svg fill="#c20175" version="1" xmlns="http://www.w3.org/2000/svg" width="1277.33333" height="1706.66667" viewBox="0 0 958 1280"><path d="M424 .6c-2.5.2-10.6.8-18 1.4-111.4 8.9-213 56.7-291.5 137.1C60 195 27.1 259 13.6 336c-8.3 46.5-8.3 105.7-.1 161 9.8 66.7 33.9 131.4 67.5 181.5 30.1 44.8 69.2 81.7 117 110.5 12.8 7.7 53.8 29 55.9 29 .9 0 189.6-251.5 190.6-254.1.4-1.1-4.9-4.1-20.2-11.6-24.5-12-36.4-19.7-48.7-31.3-22.9-21.7-34.7-46.9-37.5-80.1-3.4-39.4 8.3-72.1 36.2-101.6 21.8-23 47.9-34.3 79.5-34.3 41.9 0 73.8 15.3 96.9 46.6 11.6 15.7 20 35.8 23.9 56.9 2.6 13.8 2.6 49.9.1 66.5-5.8 38.1-17.8 66.4-45 107-12.9 19.3-181.8 240.7-279.1 366-136.2 175.3-202.1 255.9-238 290.8L0 1251v29h440.4c418.6 0 440.5-.1 441-1.8.3-.9 4.6-17 9.5-35.7 4.9-18.7 14-52.9 20.1-76 6.1-23.1 15.1-57.1 20-75.5s12.9-48.9 17.9-67.7c9-33.7 9.1-34.4 9.1-45.8V966l-169.7-.2-169.6-.3 16.4-17c128.2-132.9 220.9-271.8 260.4-390 11.7-35.1 18.3-64.5 22.7-101.5 1.9-15.8 1.6-67.3-.6-89-6.9-69.9-24.7-126.6-55.6-177.7-36.2-59.6-91-108.6-156.6-139.9C650.1 23.9 590.1 8.9 514 2.4 497.7 1 434.2-.3 424 .6z"/></svg>