<svg fill="#c20175" version="1" xmlns="http://www.w3.org/2000/svg" width="1216" height="1706.66667" viewBox="0 0 912 1280"><path d="M429 .6c-3 .2-12.5.8-21 1.4-102.2 7.2-192.3 38.4-267.9 92.7C93 128.6 49.8 171.4 10.4 223.2L-.1 237l.3 8.7.3 8.7 118.4 79.3C184 377.3 237.7 413 238.1 413c.5 0 5.3-6.6 10.8-14.8 12.8-18.8 21.1-29.1 33.7-41.7 28.3-28.1 61.5-46.7 96.8-54.1 16.5-3.4 43.7-4.4 57.6-2 34.8 6 67 28 81.4 55.5 13 25.1 13.7 61.6 1.6 87.8-4.8 10.4-8.4 15.6-16.1 23.3-17.5 17.4-44.8 28.5-78.8 32-6.1.6-37.6 1-76.7 1H282v253h64.8c84.2 0 109.1 1.3 139.8 7.5 32.1 6.5 57.6 19.5 70.9 36.3 5.4 6.7 13.6 23.1 15.9 31.8 2.6 9.6 4.6 26 4.6 37.4 0 45.2-19.9 76.3-62.5 97.5-28.6 14.3-59.5 20.5-95.4 19.2-48.2-1.7-88.6-18.7-135.1-57-14.7-12.1-38.7-37.2-53.5-55.9l-13.9-17.6-4.1 3.6c-2.3 2.1-51.2 49.6-108.8 105.6L0 1063.3v15.9l10.9 12.1c48.1 53.7 102.5 95.2 165.6 126.3 87.8 43.2 188.1 64.4 293.5 62.1 114.8-2.6 207.7-31.6 286.5-89.5 32.5-23.9 64.8-56 87.6-87.2 46.4-63.3 70-143 67.6-227.5-.7-22.7-1.7-33.3-4.8-52-9.3-55.4-31.5-103.4-68.6-148.2-17.2-20.8-49.6-50.2-72.7-65.9-4.7-3.3-8.6-6.3-8.6-6.8s3.1-4.1 6.8-8c3.8-4 11.1-12.4 16.3-18.7 62.2-74.9 86.2-141.2 81.9-225.6-3-58.2-14.4-103.5-37.7-149.2-28.3-55.6-76-105-136.8-141.6-52.1-31.4-107.8-49.5-176.1-57C498.3 1 442.1-.3 429 .6z"/></svg>