<?xml version="1.0" standalone="no"?>
<!DOCTYPE svg PUBLIC "-//W3C//DTD SVG 20010904//EN"
 "http://www.w3.org/TR/2001/REC-SVG-20010904/DTD/svg10.dtd">
<svg version="1.0" xmlns="http://www.w3.org/2000/svg"
 width="1280.000000pt" height="1021.000000pt" viewBox="0 0 1280.000000 1021.000000"
 preserveAspectRatio="xMidYMid meet">
<g transform="translate(0.000000,1021.000000) scale(0.100000,-0.100000)"
fill="#000000" stroke="none">
<path d="M8423 10200 c-6 -6 7 -5 -128 -14 -213 -15 -511 -94 -662 -176 -103
-56 -213 -128 -213 -140 0 -5 2 -10 4 -10 13 0 88 31 190 77 87 40 169 68 315
105 l196 50 220 3 c251 3 419 -7 608 -36 118 -18 149 -27 292 -88 192 -82 215
-90 470 -181 110 -40 243 -94 295 -122 183 -97 452 -275 510 -337 66 -70 180
-174 185 -169 16 16 -59 113 -178 231 -22 21 -130 106 -240 189 -111 84 -210
161 -222 173 -27 28 -93 59 -197 91 -49 15 -88 31 -88 36 0 5 -9 7 -19 3 -10
-3 -34 1 -52 9 -19 7 -61 22 -94 31 -33 9 -87 29 -120 45 -90 41 -248 118
-265 129 -47 28 -75 34 -271 60 -74 10 -146 24 -159 31 -18 9 -25 10 -28 1 -2
-6 -9 -8 -15 -4 -7 5 -28 9 -47 11 -68 5 -282 7 -287 2z"/>
<path d="M7107 9724 l-108 -46 -107 -117 c-102 -112 -202 -262 -202 -304 0 -9
-6 -20 -13 -24 -7 -4 -22 -35 -34 -68 -11 -33 -24 -69 -28 -80 -15 -44 54 49
130 176 79 130 110 165 215 242 30 21 55 52 73 88 25 51 36 61 117 109 84 49
108 70 78 70 -7 0 -62 -21 -121 -46z"/>
<path d="M6603 8929 c-92 -199 -143 -467 -158 -839 -5 -104 -3 -170 5 -200 6
-25 20 -92 30 -150 29 -159 53 -229 129 -383 39 -78 77 -159 85 -180 9 -22 25
-41 40 -47 37 -14 57 -71 63 -175 4 -74 0 -104 -19 -169 l-23 -79 -125 -31
c-191 -48 -261 -84 -685 -361 -305 -198 -562 -315 -1435 -650 -239 -92 -443
-171 -452 -176 -13 -7 -33 -1 -75 22 -47 24 -65 29 -96 25 -92 -15 -532 -165
-1004 -342 -139 -53 -412 -209 -471 -271 -59 -60 -138 -129 -226 -196 -112
-85 -173 -157 -271 -322 -74 -124 -113 -211 -126 -281 -6 -32 -35 -108 -64
-169 -122 -251 -146 -309 -203 -491 -57 -179 -113 -376 -134 -472 -5 -23 -13
-40 -18 -37 -28 17 -112 164 -133 233 -43 141 -149 272 -250 309 -82 30 -181
10 -244 -50 -42 -41 -153 -223 -190 -313 -10 -24 -24 -44 -30 -44 -7 0 -13 -8
-13 -19 0 -10 -7 -35 -16 -56 -8 -20 -13 -40 -9 -43 7 -7 24 15 82 108 120
190 230 327 285 356 58 30 145 10 206 -49 42 -40 55 -66 86 -162 l25 -77 -32
6 c-18 3 -63 9 -102 12 -43 4 -90 16 -122 31 -49 23 -54 24 -100 11 l-48 -14
52 -23 c29 -13 53 -28 53 -33 0 -5 -7 -23 -17 -41 -20 -39 -34 -97 -23 -97 5
0 32 22 62 48 29 27 63 54 75 60 55 30 161 0 233 -65 53 -48 110 -153 117
-218 11 -91 -227 -739 -359 -979 -17 -31 -68 -157 -83 -206 -20 -60 -19 -227
1 -354 9 -55 20 -108 24 -116 5 -8 8 67 7 165 l0 180 37 110 c20 61 58 148 83
195 148 273 152 283 282 676 162 489 282 843 359 1054 67 183 169 406 198 432
39 34 159 70 354 104 282 49 926 56 991 10 37 -26 186 -260 203 -321 9 -30 21
-55 27 -55 13 0 6 22 -33 115 -65 156 -156 294 -205 313 -37 14 -289 32 -449
32 -226 0 -467 -29 -739 -90 -74 -16 -147 -30 -161 -30 -25 0 -26 2 -22 44 8
67 47 139 164 301 114 157 158 205 342 375 168 156 358 281 531 350 190 75
967 358 1004 365 33 7 40 4 68 -26 17 -19 46 -57 65 -86 114 -178 168 -352
249 -803 56 -308 91 -453 142 -584 32 -83 38 -94 41 -68 2 17 -18 104 -43 194
-25 90 -64 253 -85 363 -95 485 -125 588 -243 848 l-36 77 22 14 c35 22 349
146 652 256 303 110 366 136 760 302 258 109 486 220 574 281 25 17 101 73
169 124 134 102 281 179 440 232 125 41 127 41 147 -18 18 -55 99 -138 257
-266 l87 -70 27 -110 c35 -144 73 -251 134 -377 52 -109 128 -234 136 -225 3
3 -19 61 -49 129 -30 67 -64 152 -75 188 -29 89 -74 270 -70 282 2 5 57 -45
122 -112 65 -67 120 -119 123 -116 10 10 -155 225 -247 320 -82 84 -223 206
-314 269 -36 25 -73 83 -87 138 -12 45 -11 49 26 125 42 86 53 82 36 -12 -12
-60 -8 -75 11 -56 19 19 27 14 34 -23 3 -19 10 -32 15 -29 13 7 99 182 133
268 23 56 26 77 21 117 -7 51 -19 61 -40 32 -11 -15 -16 -11 -39 35 -14 29
-30 52 -35 52 -5 0 -11 -38 -12 -85 -5 -119 -22 -128 -42 -23 -16 87 -59 198
-76 198 -14 0 -15 1 13 -125 30 -138 41 -213 28 -200 -5 6 -17 35 -27 65 -10
30 -37 103 -61 162 -24 59 -56 149 -70 200 -15 51 -30 97 -35 103 -5 5 -9 -17
-9 -53 0 -34 -4 -62 -10 -62 -15 0 -47 71 -76 167 -22 76 -26 106 -25 226 0
75 -4 137 -9 137 -4 0 -18 -16 -30 -36 -13 -19 -26 -32 -31 -27 -14 14 -24
174 -17 273 11 143 36 285 62 359 13 36 36 98 50 136 27 75 21 93 -20 54 -13
-12 -27 -20 -30 -17 -9 10 15 153 42 256 32 120 26 147 -13 61z"/>
<path d="M9695 8699 c-55 -5 -228 -13 -385 -17 l-285 -7 80 -19 c70 -17 107
-18 329 -13 l250 5 50 -28 c28 -16 69 -33 91 -39 26 -7 44 -19 50 -33 12 -28
116 -55 245 -64 111 -7 130 -11 130 -29 0 -8 2 -15 5 -15 24 0 225 85 225 96
0 21 -16 25 -52 10 -60 -25 -164 -29 -273 -11 -55 9 -113 23 -130 30 -16 7
-56 20 -88 29 -67 20 -66 36 1 36 54 0 181 25 194 38 5 5 3 14 -5 21 -19 15
-302 22 -432 10z"/>
<path d="M11007 8588 c13 -70 8 -169 -10 -231 -14 -45 -31 -72 -82 -126 -62
-65 -77 -91 -55 -91 6 0 10 7 10 15 0 8 6 15 14 15 8 0 44 29 80 65 l66 64 0
-54 c0 -87 -42 -344 -72 -438 -8 -27 -8 -41 -1 -48 12 -12 17 4 78 231 65 242
71 476 15 581 -36 69 -53 76 -43 17z"/>
<path d="M9265 8561 c-63 -8 -51 -15 47 -32 61 -10 95 -10 167 -1 101 14 123
20 115 33 -6 10 -247 10 -329 0z"/>
<path d="M9292 8465 c-28 -7 -120 -23 -204 -35 -188 -27 -221 -39 -114 -39 68
-1 77 -3 66 -16 -28 -33 -107 -45 -304 -45 -136 0 -187 -3 -179 -11 17 -17
137 -29 303 -29 l155 0 -25 -20 c-14 -11 -42 -25 -62 -32 -44 -13 -52 -31 -10
-22 67 15 101 29 162 69 36 23 79 50 96 58 17 9 34 23 37 31 3 8 33 27 67 42
33 15 65 35 71 46 11 20 13 20 -59 3z"/>
<path d="M10577 8404 c-79 -33 -197 -48 -340 -42 -67 3 -114 1 -110 -3 5 -5
36 -19 68 -30 51 -18 73 -20 150 -14 49 3 98 9 108 11 43 13 9 -15 -68 -54
-47 -24 -85 -48 -85 -52 0 -15 89 -23 174 -17 124 9 231 40 282 83 43 35 55
54 33 54 -6 0 -46 -15 -88 -34 -79 -36 -187 -60 -237 -54 -27 3 -24 6 36 36
118 57 162 88 181 124 8 15 5 18 -18 17 -15 0 -54 -12 -86 -25z"/>
<path d="M10841 8304 c-30 -25 -68 -52 -85 -61 -17 -8 -38 -21 -46 -29 -9 -7
-47 -30 -85 -49 -39 -20 -77 -43 -85 -52 -13 -14 -11 -15 25 -8 59 10 156 45
188 67 18 13 36 18 51 14 30 -7 80 40 108 102 34 75 7 82 -71 16z"/>
<path d="M8118 8177 c-43 -12 -78 -25 -78 -29 0 -5 75 -5 168 -2 151 6 176 4
262 -16 94 -22 136 -37 127 -46 -7 -7 -163 -33 -295 -48 -118 -13 -142 -19
-130 -32 14 -13 297 16 383 40 130 35 220 69 215 81 -3 6 -30 10 -60 10 -38 0
-77 10 -125 30 -66 27 -79 29 -230 31 -140 3 -170 0 -237 -19z"/>
<path d="M8390 7875 c-85 -30 -191 -62 -235 -71 -118 -24 -316 -96 -302 -110
3 -3 92 17 198 45 107 27 209 52 227 55 52 9 39 -18 -28 -59 -33 -20 -57 -41
-54 -46 3 -6 13 -8 21 -5 9 4 13 1 11 -6 -8 -22 -120 -55 -284 -83 -87 -15
-170 -32 -184 -37 -23 -9 -20 -12 53 -50 43 -22 114 -72 157 -110 44 -37 80
-64 80 -58 0 5 -11 35 -25 66 -37 83 -35 91 33 110 134 39 243 114 326 227 38
51 76 89 130 126 42 29 76 54 76 57 0 13 -61 -3 -200 -51z"/>
<path d="M10895 7576 c-8 -19 -15 -40 -15 -45 0 -5 -32 -63 -72 -128 -87 -143
-108 -196 -108 -271 0 -102 68 -262 171 -403 71 -97 64 -166 -22 -209 -35 -18
-51 -20 -122 -14 -74 6 -88 4 -146 -20 -46 -19 -68 -23 -81 -16 -26 14 -30 13
-30 -10 0 -28 35 -34 125 -20 61 9 79 9 85 -1 4 -6 11 -45 15 -86 8 -86 9 -84
-90 -133 -81 -39 -425 -116 -425 -94 0 3 17 31 39 62 57 85 104 183 93 194 -6
6 -32 -20 -73 -74 -98 -129 -265 -289 -357 -340 -92 -53 -190 -192 -180 -259
3 -23 4 -22 25 12 35 55 69 85 158 139 44 27 92 59 106 72 14 13 40 35 57 50
l32 28 19 -38 c26 -51 54 -150 47 -168 -9 -24 -46 -16 -105 26 -58 41 -71 47
-71 31 0 -15 91 -111 121 -126 37 -20 113 -19 129 0 7 8 23 15 36 15 30 0 30
10 8 178 -14 104 -15 125 -3 132 7 5 63 21 124 36 170 42 241 69 301 114 31
23 62 56 69 74 8 17 36 58 64 91 28 32 51 63 51 67 0 4 22 32 49 61 75 84 76
126 3 241 -28 44 -30 50 -15 61 34 25 -7 232 -52 261 -18 12 -25 25 -25 48 0
57 20 79 83 94 68 17 72 32 17 67 -39 25 -60 52 -60 77 0 7 18 37 40 67 43 57
49 76 25 85 -11 4 -13 16 -9 49 8 58 -11 72 -31 23z m-45 -682 c27 -72 26 -99
-1 -59 -37 55 -60 107 -55 122 10 25 32 -1 56 -63z"/>
<path d="M7495 7566 c-142 -47 -169 -70 -244 -207 -37 -70 -41 -83 -41 -150 0
-107 -6 -122 -42 -115 -38 8 -42 -4 -28 -104 18 -132 31 -144 52 -48 l14 61
12 -112 c10 -102 27 -160 62 -211 5 -8 26 -44 46 -80 20 -36 46 -76 58 -89 29
-32 228 -149 372 -218 108 -52 126 -58 197 -61 61 -3 82 -1 96 12 22 20 67
114 58 122 -4 4 -29 -14 -56 -39 -46 -43 -54 -47 -101 -47 -59 0 -129 27 -278
109 -128 69 -199 124 -257 199 -68 86 -92 143 -114 277 -39 233 -42 287 -21
370 25 99 42 129 114 200 67 67 126 99 200 110 26 4 44 11 39 15 -16 16 -98
19 -138 6z"/>
<path d="M10345 7505 c-93 -17 -153 -34 -159 -44 -6 -10 18 -15 145 -31 84
-11 88 -11 137 14 59 30 68 41 52 61 -15 18 -78 18 -175 0z"/>
<path d="M10015 7405 c-22 -8 -41 -15 -42 -15 -2 0 -3 -5 -3 -11 0 -8 17 -10
54 -5 67 8 109 23 101 36 -9 14 -63 12 -110 -5z"/>
<path d="M7610 7372 l-45 -7 43 -17 c23 -10 42 -22 42 -26 0 -5 -12 -19 -26
-33 -39 -37 -54 -71 -48 -115 11 -84 10 -82 72 -94 87 -18 90 -22 45 -59 -21
-17 -64 -44 -95 -59 l-57 -27 0 -50 c-1 -80 14 -124 55 -166 21 -22 43 -39 49
-39 6 0 39 21 73 46 53 40 66 45 104 42 39 -3 46 -7 75 -52 36 -56 67 -79 130
-97 50 -14 66 -5 77 42 5 21 -2 34 -34 67 -47 47 -52 85 -20 147 13 25 18 49
15 64 -6 23 -9 24 -68 18 -34 -3 -77 -9 -94 -13 -28 -5 -33 -4 -33 13 0 10 7
29 17 42 10 15 17 49 19 93 3 57 8 77 29 103 14 19 25 38 25 44 0 5 -34 37
-75 71 l-74 61 -78 3 c-43 3 -98 1 -123 -2z"/>
<path d="M7414 7283 c-45 -68 -45 -68 -55 -131 -21 -127 -20 -186 1 -282 26
-118 55 -179 119 -251 44 -50 135 -119 155 -119 4 0 -21 32 -56 70 -97 108
-135 171 -143 233 -8 61 8 163 35 225 22 49 36 220 22 267 -14 48 -42 43 -78
-12z"/>
<path d="M10217 7244 c-42 -17 -93 -42 -114 -54 -111 -67 -213 -133 -209 -137
2 -2 31 3 64 11 78 21 96 20 165 -4 91 -32 151 -26 168 17 7 18 14 22 31 18
31 -7 60 19 83 75 10 25 27 54 37 66 10 11 18 23 18 26 0 4 -38 8 -84 10 -75
3 -91 0 -159 -28z"/>
<path d="M10510 6745 c-42 -62 -64 -115 -48 -115 20 0 140 73 152 92 17 28 -8
68 -43 68 -24 0 -36 -9 -61 -45z"/>
<path d="M9915 5795 c4 -16 23 -56 42 -89 l36 -58 -12 -69 c-7 -37 -10 -77 -6
-89 6 -19 11 -17 61 29 42 38 72 56 122 71 77 24 112 44 112 65 0 20 -18 19
-65 -5 -75 -38 -131 -20 -201 66 -22 26 -52 61 -67 78 l-29 31 7 -30z"/>
<path d="M8711 5373 c0 -4 40 -41 90 -81 49 -41 89 -78 89 -84 0 -31 -59 -112
-118 -161 -37 -31 -80 -70 -97 -88 l-30 -33 30 19 c17 10 57 38 90 62 35 25
63 39 68 34 5 -5 2 -31 -7 -64 -36 -123 -15 -101 60 66 31 70 61 127 67 127 5
0 53 -14 106 -31 93 -30 103 -31 316 -36 121 -2 254 -5 295 -6 67 -2 83 2 143
31 70 35 108 77 122 135 4 15 12 27 17 27 38 0 178 -215 220 -336 15 -45 42
-144 58 -220 54 -255 79 -323 189 -514 142 -246 462 -843 475 -887 9 -28 -5
-37 -164 -104 -243 -101 -330 -153 -451 -269 -85 -81 -65 -76 61 16 113 83
281 162 451 214 l137 42 98 -44 c106 -46 177 -104 252 -200 80 -104 185 -352
323 -763 53 -159 117 -347 142 -417 26 -71 43 -128 39 -128 -4 0 -25 7 -47 14
-54 19 -174 30 -204 19 -20 -8 -13 -12 55 -32 136 -39 224 -95 260 -163 17
-33 11 -34 -50 -7 -37 16 -78 22 -192 27 -80 4 -148 4 -150 1 -5 -9 72 -28
133 -34 119 -11 239 -67 350 -163 89 -77 195 -152 214 -152 7 0 -24 36 -69 79
-77 75 -85 87 -155 233 -102 210 -199 458 -243 613 -77 279 -142 457 -267 729
-63 139 -139 235 -280 354 -167 143 -330 392 -549 842 -74 151 -160 320 -191
376 -49 88 -61 120 -96 266 -44 184 -93 325 -152 438 -46 87 -152 234 -173
238 -9 2 -25 -16 -41 -48 -31 -61 -96 -135 -139 -158 -22 -12 -56 -16 -116
-16 -95 0 -114 8 -217 80 -74 53 -88 56 -43 9 43 -44 35 -53 -56 -66 -83 -12
-220 2 -303 31 -48 17 -151 73 -313 170 -21 12 -38 18 -37 13z"/>
<path d="M5258 4995 c-4 -11 -14 -52 -22 -91 -9 -40 -37 -127 -64 -195 -121
-304 -209 -634 -276 -1034 -29 -173 -63 -438 -72 -560 -4 -46 -10 -82 -14 -80
-4 2 -31 66 -60 142 -29 76 -81 210 -115 298 -98 251 -185 428 -185 375 0 -5
34 -96 76 -202 193 -491 263 -691 294 -843 10 -49 24 -103 30 -120 8 -20 13
-135 14 -357 l3 -327 -36 -5 c-20 -4 -117 -7 -216 -8 -159 -1 -196 2 -320 26
-95 18 -158 36 -197 56 -51 27 -67 30 -145 30 -176 1 -408 46 -446 88 -43 48
-45 70 -36 397 4 171 11 378 15 460 7 174 -8 503 -25 531 -8 14 -9 -17 -5
-131 4 -82 1 -278 -6 -435 -7 -157 -15 -384 -19 -505 -7 -248 -11 -263 -78
-286 -21 -7 -76 -13 -123 -13 -95 -1 -123 9 -191 71 -21 19 -39 32 -39 28 0
-4 9 -43 21 -88 29 -114 17 -206 -52 -394 -54 -148 -204 -400 -353 -593 -88
-114 -297 -363 -355 -423 -158 -165 -355 -254 -622 -283 -183 -19 -250 -14
-364 27 -47 17 -90 29 -97 27 -7 -3 34 -28 92 -56 161 -80 307 -91 534 -42 98
21 334 128 411 185 22 17 45 34 50 37 6 3 35 0 65 -8 80 -21 121 -17 206 16
145 58 149 61 168 132 20 72 58 144 116 220 62 82 101 185 110 293 8 90 20
125 58 174 18 22 21 23 57 11 46 -15 133 -74 380 -257 349 -258 451 -317 766
-446 225 -92 439 -147 574 -147 77 0 236 45 355 100 58 28 112 50 119 50 6 0
15 -8 18 -17 11 -29 114 -205 142 -243 143 -193 163 -206 501 -321 130 -44
149 -47 385 -58 l170 -7 70 -70 c86 -86 170 -133 212 -119 17 6 35 24 46 47
16 33 17 44 7 95 -16 77 -76 254 -91 267 -9 8 -10 6 -4 -9 16 -45 45 -203 45
-252 0 -50 -1 -53 -26 -53 -43 0 -129 48 -177 99 -50 53 -76 99 -102 181 -10
30 -21 59 -25 64 -5 4 -11 -27 -15 -70 -11 -116 -8 -114 -123 -114 -110 0
-149 13 -221 74 -29 24 -50 35 -60 30 -49 -20 -107 -15 -186 16 -112 44 -156
75 -266 187 -205 209 -225 237 -331 480 -150 341 -217 566 -253 848 -22 166
-36 460 -29 580 6 89 10 106 39 155 38 64 55 118 55 177 0 54 -16 64 -25 16
-19 -103 -93 -174 -109 -105 -4 15 -9 99 -12 187 -6 154 -4 175 46 530 28 204
58 411 66 460 23 138 106 433 200 712 81 242 85 256 82 330 -2 47 -6 70 -10
58z m-1738 -2856 l69 -40 213 -24 c179 -20 215 -26 228 -42 16 -21 57 -132
115 -313 68 -209 168 -425 263 -560 56 -80 51 -74 57 -69 2 3 -19 43 -47 89
-134 221 -285 641 -228 633 8 -1 53 -14 98 -28 99 -29 258 -58 298 -53 21 2 1
10 -66 27 -52 13 -144 39 -205 59 -96 31 -116 42 -157 83 -25 25 -56 65 -68
89 -20 39 -20 42 -3 36 86 -35 346 -72 596 -85 98 -6 182 -13 187 -16 5 -3 16
-40 25 -83 63 -304 149 -569 274 -846 28 -62 30 -71 17 -91 -30 -46 -224 -131
-364 -160 l-83 -16 -142 31 c-161 36 -366 107 -542 187 -254 115 -304 149
-820 544 -67 52 -135 85 -207 103 -20 4 -34 0 -55 -18 -60 -50 -83 -97 -98
-199 -15 -98 -29 -135 -93 -241 -20 -33 -59 -116 -87 -184 -53 -128 -78 -158
-118 -146 -12 4 -33 -6 -57 -25 -22 -17 -51 -36 -65 -41 -32 -12 -155 -13
-155 -2 0 5 33 44 73 88 331 360 593 779 687 1099 18 61 36 118 41 127 5 10
28 22 52 28 91 23 214 63 247 81 19 10 39 18 43 19 5 0 39 -18 77 -41z"/>
<path d="M8787 4839 c-26 -63 -78 -269 -74 -291 3 -22 4 -21 15 6 7 16 28 92
48 168 35 137 39 184 11 117z"/>
<path d="M9437 4556 c-54 -107 -115 -221 -136 -253 -49 -76 -155 -167 -368
-319 -142 -101 -195 -146 -343 -295 -196 -198 -285 -268 -454 -358 -264 -139
-452 -268 -695 -476 -314 -268 -515 -420 -652 -494 -116 -63 -458 -191 -508
-191 -14 0 -24 14 -37 53 -9 28 -43 112 -75 185 -33 73 -59 143 -59 154 0 11
17 48 38 82 56 89 184 346 227 455 20 51 54 157 76 235 57 196 162 414 275
568 28 39 51 88 72 155 37 117 76 292 68 300 -11 11 -49 -92 -68 -182 -27
-136 -69 -211 -198 -356 -61 -68 -123 -144 -137 -167 -30 -51 -59 -149 -103
-348 -24 -113 -46 -177 -104 -313 -108 -250 -155 -319 -231 -340 -36 -10 -43
-8 -77 16 -64 43 -54 19 25 -66 85 -90 130 -162 187 -295 53 -125 82 -244 125
-512 56 -353 67 -391 166 -584 27 -52 58 -132 70 -178 l22 -82 -24 -26 c-13
-14 -64 -55 -112 -91 -48 -36 -86 -68 -83 -70 2 -2 46 20 97 49 157 87 181 98
286 120 l101 21 229 -42 c292 -54 379 -75 482 -118 45 -19 85 -32 88 -30 2 3
-3 17 -12 31 -14 20 -14 26 -4 26 32 -1 160 -60 233 -108 43 -29 81 -50 83
-48 6 6 -64 70 -134 122 -97 73 -173 92 -638 160 -264 39 -325 45 -410 41
l-100 -6 -117 232 -116 232 -57 334 c-30 183 -54 335 -52 338 2 2 75 24 161
48 179 52 223 70 390 161 174 96 206 119 550 403 171 142 334 274 361 293 28
19 149 85 270 146 316 160 375 201 589 410 196 191 325 303 463 401 105 75 87
87 202 -133 93 -178 115 -239 211 -594 77 -290 116 -403 173 -505 49 -87 140
-184 225 -240 l67 -44 57 -129 c99 -222 157 -308 339 -504 89 -96 201 -227
249 -290 48 -63 104 -131 126 -150 54 -48 114 -94 118 -89 2 2 -29 43 -69 91
-40 48 -97 126 -127 175 -38 63 -86 121 -171 207 -214 215 -262 280 -366 492
-69 140 -96 207 -108 266 -9 43 -20 78 -24 78 -5 0 -16 -11 -25 -25 -19 -28
-23 -27 -104 34 -99 75 -177 189 -226 333 -13 40 -40 145 -59 233 -52 238 -63
275 -144 477 -61 151 -125 336 -141 409 l-12 55 61 84 c84 119 154 250 185
350 15 47 31 99 36 116 12 36 13 74 3 74 -5 0 -52 -87 -106 -194z"/>
<path d="M3440 3660 c0 -5 5 -10 10 -10 6 0 10 5 10 10 0 6 -4 10 -10 10 -5 0
-10 -4 -10 -10z"/>
<path d="M359 2738 c-11 -22 -67 -89 -122 -147 -114 -120 -194 -232 -220 -306
-14 -41 -16 -80 -13 -220 3 -181 8 -202 61 -274 14 -19 25 -42 25 -52 0 -10
16 -30 35 -45 22 -16 39 -40 45 -63 10 -37 40 -73 71 -83 8 -3 21 -24 27 -47
9 -28 22 -46 42 -56 33 -17 35 -23 19 -79 -12 -44 -5 -86 15 -86 8 0 16 17 20
42 4 23 25 77 46 120 22 43 40 81 40 84 0 3 -24 2 -54 -1 -48 -6 -55 -5 -65
13 -18 33 -13 70 14 110 23 34 33 72 19 72 -3 0 -25 -14 -49 -31 -67 -48 -101
-33 -119 53 -3 15 -15 29 -25 33 -11 3 -22 19 -26 36 -4 17 -20 42 -36 56 -45
40 -51 74 -40 215 20 241 35 275 190 440 122 130 141 159 141 218 0 51 -14 51
-41 -2z"/>
<path d="M530 2636 c-12 -33 -13 -56 -1 -56 10 0 25 69 17 77 -3 3 -10 -6 -16
-21z"/>
<path d="M505 2560 c-12 -20 -46 -165 -60 -258 -25 -165 -15 -394 26 -612 16
-86 69 -272 86 -301 14 -24 13 -29 -17 -82 -40 -72 -57 -81 -131 -73 -51 6
-58 5 -53 -9 9 -23 57 -45 99 -45 30 0 46 9 91 52 66 63 64 64 129 -82 79
-175 104 -221 187 -332 130 -174 123 -133 -15 92 -104 170 -202 389 -286 637
-90 266 -112 655 -52 918 5 22 12 55 16 73 7 31 -6 45 -20 22z"/>
<path d="M11030 1577 c-113 -89 -155 -157 -164 -262 -3 -39 -15 -99 -26 -133
-23 -72 -26 -156 -7 -188 45 -77 59 -111 64 -154 8 -66 0 -88 -52 -156 l-46
-59 33 -27 c39 -32 56 -33 167 -9 80 18 87 21 135 72 28 30 69 76 91 103 l41
48 101 -16 c55 -9 123 -16 151 -16 92 0 285 -30 382 -60 52 -16 126 -34 164
-41 93 -16 250 -7 298 16 36 18 41 18 110 2 130 -31 168 -21 168 43 l0 40 59
0 c43 0 65 5 82 19 23 19 23 21 7 48 -9 15 -26 47 -38 70 -27 53 -117 136
-183 170 -57 29 -224 73 -271 72 l-31 -1 35 -15 c19 -8 46 -20 60 -25 19 -7
21 -11 10 -18 -11 -7 -6 -13 24 -25 21 -9 82 -49 135 -89 193 -147 208 -166
118 -151 -54 9 -63 14 -182 100 -98 71 -183 121 -191 112 -3 -2 33 -28 78 -58
88 -58 227 -184 215 -195 -4 -4 -31 -7 -59 -5 -83 4 -199 53 -589 253 -48 26
-64 29 -130 26 l-74 -3 90 -22 c50 -12 115 -36 145 -52 30 -17 123 -64 205
-104 83 -41 158 -84 168 -95 74 -82 -108 -94 -433 -28 -183 37 -525 86 -601
86 -41 0 -47 -4 -129 -89 -94 -98 -128 -121 -212 -146 -59 -17 -98 -13 -98 8
0 7 18 29 39 49 47 44 58 91 42 188 -6 36 -11 68 -11 71 0 3 -14 24 -31 45
-28 36 -30 44 -25 90 9 80 30 120 136 267 14 20 13 20 -28 -3 -53 -30 -68 -20
-53 36 12 45 54 108 129 193 30 34 50 61 45 61 -4 0 -33 -19 -63 -43z m1487
-514 c60 -30 142 -97 131 -108 -5 -6 -198 121 -198 131 0 8 12 4 67 -23z"/>
<path d="M12305 1110 c3 -5 8 -10 11 -10 2 0 4 5 4 10 0 6 -5 10 -11 10 -5 0
-7 -4 -4 -10z"/>
<path d="M7086 842 c5 -4 27 -14 49 -21 49 -17 123 -69 151 -108 11 -15 40
-72 64 -126 36 -82 75 -152 163 -288 13 -20 -17 -67 -48 -75 -24 -6 -125 40
-181 82 -18 13 -57 59 -88 103 -64 92 -201 235 -216 226 -5 -3 -10 -21 -10
-38 0 -46 -7 -53 -88 -83 -39 -14 -72 -30 -72 -34 0 -16 64 -30 134 -30 39 0
88 -5 109 -11 41 -11 107 -63 95 -74 -4 -4 -44 -15 -90 -25 -98 -20 -171 -40
-167 -45 2 -1 60 3 129 11 69 7 135 13 146 14 12 0 51 -24 87 -52 63 -50 120
-77 196 -93 41 -9 77 9 97 47 16 32 12 57 -22 135 l-24 53 25 6 c45 11 72 -5
124 -71 57 -73 84 -93 138 -105 59 -14 90 -3 103 36 11 32 14 34 59 34 55 0
71 12 71 56 0 36 -14 53 -24 29 -7 -20 -49 -19 -75 3 -13 10 -30 49 -45 100
-24 82 -60 142 -96 162 -26 14 -25 9 4 -48 17 -32 31 -89 44 -175 l19 -129
-24 -9 c-13 -5 -37 -9 -54 -9 -33 0 -70 44 -120 142 -32 63 -53 81 -115 97
-57 15 -87 42 -125 109 -37 64 -139 176 -181 198 -28 15 -159 20 -142 6z"/>
</g>
</svg>
