<svg fill="#c20175" version="1" xmlns="http://www.w3.org/2000/svg" width="1296" height="1706.66667" viewBox="0 0 972 1280"><path d="M385.8 16.3c-3.6 8.9-26.4 64.1-50.6 122.7-24.2 58.6-90.7 219.4-147.7 357.5C67.9 786 51.7 825.3 21.9 897.4L0 950.3V975h490v305h10.8c11.2 0 8.1.4 173.7-24.5 112.3-16.9 129.6-19.5 130.1-19.5.2 0 .4-58.7.4-130.5V975h59.5c32.7 0 59.5-.4 59.5-.8 0-.5 10.8-60.1 24-132.6 21.9-120 24-132.7 24-142.6v-11H805V0H392.5l-6.7 16.3zM510 545.5V688h-59c-32.4 0-59-.3-59-.7 0-.9 117.3-284.3 117.7-284.3.2 0 .3 64.1.3 142.5z"/></svg>