<svg fill="#c20175" version="1" xmlns="http://www.w3.org/2000/svg" width="1248" height="1706.66667" viewBox="0 0 936 1280"><path d="M130 357v357l2.8-1.1c8.6-3.4 78-27.4 90.2-31.2 59.3-18.7 101.3-26.8 154.5-29.7 70-3.9 126.7 12.3 171 49 6.8 5.6 17.6 17.8 23.3 26.2 5.2 7.6 11.8 21.7 15 31.8 10 31.6 9.2 75.2-1.9 108.3-16.9 50.7-61.4 88.1-120 101-18.1 4-29 5.1-50.4 5-35.9-.1-61.8-6.3-93.6-22.4-32.6-16.5-60-38.8-90-72.9-6.8-7.7-12.6-13.9-13-13.8-.4.2-36.6 34.9-80.5 77.3-44 42.3-92.8 89.4-108.5 104.5L.2 1073.5l-.1 8.9-.1 8.8 19.3 19.2c79.9 79.8 172.7 131.2 280.2 155.5 43.3 9.7 80.6 13.6 132 13.6 38.8-.1 59.5-1.4 92.4-6.1 89-12.6 167.2-44.2 234.6-94.8 35.5-26.6 75-66.9 99.1-101.1 41.1-58.2 66.1-125.1 74.8-200.5 8.8-76.5 1.1-151.3-22.2-215.5-29.7-81.6-86.3-151.1-167.7-205.5-59.5-39.8-124.2-64.2-193.6-72.9-20.5-2.6-54.5-4.2-66.4-3.1-4.9.5-11.8.9-15.2.9l-6.3.1v-71l163.7-.2 163.8-.3 26.2-93c14.4-51.2 33.9-120.5 43.4-154 9.4-33.6 17.3-61.3 17.6-61.8.2-.4-167.5-.7-372.6-.7H130v357z"/></svg>