<?xml version="1.0" encoding="utf-8"?>
<!-- Svg Vector Icons : http://www.onlinewebfonts.com/icon -->
<!DOCTYPE svg PUBLIC "-//W3C//DTD SVG 1.1//EN" "http://www.w3.org/Graphics/SVG/1.1/DTD/svg11.dtd">
<svg fill="#590898" version="1.1" xmlns="http://www.w3.org/2000/svg" xmlns:xlink="http://www.w3.org/1999/xlink" x="0px" y="0px" viewBox="0 0 1000 1000" enable-background="new 0 0 1000 1000" xml:space="preserve">
<metadata> Svg Vector Icons : http://www.onlinewebfonts.com/icon </metadata>
<g><g><path d="M697.4,112.4H302.7C141.3,112.4,10,243.7,10,405c0,161.4,131.3,292.7,292.7,292.7h139.9v155.9c0,13.8,8.3,26.2,21,31.5c4.2,1.7,8.5,2.6,13,2.6c9.1,0,17.6-3.5,24-9.9l181.3-180h15.5C858.7,697.7,990,566.4,990,405C990,243.7,858.7,112.4,697.4,112.4z M500,615c-24.7,0-44.8-20.1-44.8-44.8c0-24.7,20.1-44.8,44.8-44.8s44.8,20.1,44.8,44.8C544.8,594.9,524.7,615,500,615z M546.9,401.9c-5.9,4-10,7-12.2,8.8v46.8c0,19.2-15.6,34.8-34.8,34.8c-19.2,0-34.8-15.6-34.8-34.8v-50.4c0-33.6,24.5-50.4,42.5-62.6c19.3-13.2,32.1-21.9,32.1-49.2c0-21.9-17.9-39.8-39.8-39.8c-22,0-39.8,17.9-39.8,39.8c0,19.2-15.6,34.8-34.8,34.8c-19.2,0-34.8-15.6-34.8-34.8c0-60.3,49.1-109.3,109.3-109.3c60.3,0,109.3,49.1,109.3,109.3C609.3,359.3,570.3,385.9,546.9,401.9z"/></g><g></g><g></g><g></g><g></g><g></g><g></g><g></g><g></g><g></g><g></g><g></g><g></g><g></g><g></g><g></g></g>
</svg>