<svg fill="#590898" xmlns="http://www.w3.org/2000/svg" viewBox="0 0 1000 1000"><path d="M465.21 10.74c-152.4 10.32-291.4 92.23-376.82 221.79-44.35 67.63-74 155.47-77.51 230.57-1.76 34.91-1.54 34.91 37.77 51.16 33.38 13.62 43.04 15.15 52.26 7.9 9.22-7.25 10.76-12.3 12.52-43.92 9-157.23 113.75-294.91 262.19-344.32 48.75-16.25 65.44-18.67 124.07-18.67 45.46 0 54.46.44 74.66 4.83 167.33 36.23 287.67 165.79 309.84 333.56 3.73 29.42 1.54 94.42-4.61 122.53-28.99 137.02-125.61 246.6-256.04 290.74-41.28 13.83-64.12 18-110.23 19.32-44.14 1.32-66.32-.66-102.99-9.22-65.88-15.59-134.83-53.58-178.53-98.6l-9.66-10.1 30.08-30.3c32.94-33.16 36.01-38.43 31.84-55.12-3.95-15.15-11.42-19.76-76.42-45.89-33.16-13.4-82.35-33.38-109.36-44.14-27.01-10.98-52.26-19.98-56-19.98-17.57 0-32.28 15.37-32.28 33.6 0 21.08 32.94 267.9 36.89 276.03 7.25 14.71 28.55 22.4 42.82 15.15 2.64-1.32 16.91-14.27 31.62-28.99l26.79-26.35 18.67 17.57C275.7 963.1 429.41 1009.21 580.93 984.62 773.74 953 931.63 805.22 977.3 614.17c13.4-56.65 16.47-128.67 7.9-185.11C952.93 217.37 791.09 52.02 581.6 16.23c-17.57-2.85-79.27-8.13-88.49-7.25-1.76 0-14.28.88-27.9 1.76z"/><path d="M490.91 186.19c-9.22 2.86-15.37 7.47-19.98 14.71-3.51 5.71-7.47 33.6-22.62 153.71-19.99 157.89-19.77 157.46-9.89 177.88 8.78 18.23 18.45 24.59 77.73 49.63 215.86 91.35 219.37 92.89 229.25 92.45 23.72-.88 39.31-29.86 26.79-50.29-2.41-3.95-13.39-14.05-24.81-22.62-11.2-8.56-56.87-43.26-101.67-77.08l-81.24-61.48-15.81-126.92c-11.42-92.01-16.69-128.68-19.54-133.95-6.59-12.31-25.04-20.21-38.21-16.04z"/></svg>