<svg xmlns="http://www.w3.org/2000/svg" xmlns:xlink="http://www.w3.org/1999/xlink" viewBox="0 0 174.9 165.5"><defs><path id="a" d="M0 0h174.9v165.5H0z"/></defs><clipPath id="b"><use xlink:href="#a" overflow="visible"/></clipPath><path clip-path="url(#b)" fill="#E8AEA6" d="M171.2 154.5c0 4.2-32.4 7.6-72.3 7.6s-72.3-3.4-72.3-7.6 32.4-7.6 72.3-7.6 72.3 3.4 72.3 7.6M26.6 147.9c0 .6-4.5 1.1-10.1 1.1s-10.1-.5-10.1-1.1c0-.6 4.5-1.1 10.1-1.1s10.1.5 10.1 1.1M50.4 164.4c0 .6-4.5 1.1-10.1 1.1s-10.1-.5-10.1-1.1c0-.6 4.5-1.1 10.1-1.1s10.1.5 10.1 1.1"/><path clip-path="url(#b)" fill="#2D0A7E" d="M155.8 143.4s11.5 4.5 17.7 4.7c0 0 7.3-.6-11.5-9.2 0 0-2 1.9-6.4 1.5l.2 3zM123 152.9s12.2 1.9 18.3.8c0 0 7.9-1.5-12.2-5.9 0 0-3 .3-7.7-1l1.6 6.1z"/><path clip-path="url(#b)" fill="#C98455" d="M121.3 108s11.7 13.2 8.9 22.8c-2.8 9.6-8.9 16-8.9 16s4.4 2.1 8.5 1.3c0 0 12.8-10.5 11.4-35.1 0 0-6.7-6.4-14.8-7.5l-1.7 2.8-3.4-.3z"/><path clip-path="url(#b)" fill="#464391" d="M124.7 108.2s-6-1.5-19 3.4S61.8 125 58.5 99.2c0 0 1-11.7-1.2-18.8l16.4 11.3s17.3 4.3 31.1 0c13.9-4.3 18.8-4.1 22.4-2.8 0 .1 4.5 9.9-2.5 19.3"/><path clip-path="url(#b)" fill="#c20175" d="M85 7.3s3.6 12.6 0 20c0 0 1.1 17.1-16.4 14.3 0 0 1.9 8.1 4.9 8.5 0 0-23.9 7.3-34.1-11.1 0 0-3-6.4 0-10.9s6.8-3.8 6.8-3.8-1.9-9.3 3.2-15.5C54.5 2.7 79.2-6.7 85 7.3"/><path clip-path="url(#b)" fill="#E2995F" d="M81.8 11.8s8.7 22.7-2.6 28.2c-7 3.4-10.7 1.7-10.7 1.7s-1.5 7 1.5 12.8c0 0-4.7 5.1-9.8-3.2 0 0 2.8-7.9 1.9-13.6 0 0-1.5-2.1-1.9-5.1 0 0-3-4.9-1.3-7.7s4.9-1.5 5.3.6c.1 0 11.8 1.7 17.6-13.7"/><path clip-path="url(#b)" fill="#1D184C" d="M80.3 93l33.3-3.6L124.4 56h-3.1l-9.6 30.1-31.4 3.6z"/><path clip-path="url(#b)" fill="#464391" d="M60.2 51.3s-8.3.9-7.9 9.2c.4 8.3 2.8 13 2.8 13s5.1-4.1 12.2-4.1c0 0 2.6 16.6 6.4 22.4 0 0-.9-11.1 0-16.8 0 0 6.6-3.2 4.7-9.2-1.9-6-8.3-11.3-8.3-11.3s-4.8 4.7-9.9-3.2"/><path clip-path="url(#b)" fill="#E2995F" d="M78.7 102s-13.8 7.7-23.6-28.6c0 0 4.5-4.5 12.2-4.1 0 0 3.4 17.9 6.4 22.4 3 4.5 13.2 2.3 14.5-1.1 1.3-3.4-1.1-8.7 2.8-10.7 3.8-1.9 7.7-2.3 8.5-.2.9 2.1-1.9 5.1-4.1 6.2-2.1 1.1-1.3 6.2-3 7.9-1.7 1.8-9.3 7.7-13.7 8.2M126.4 105.5s10.4 1.1 18.5 11.5 10.7 23.4 10.7 23.4 4.5.6 6.4-1.5c0 0 .2-37.7-34.1-48 0 0 2.2 6.5-1.5 14.6"/><path clip-path="url(#b)" fill="#5d22b1" d="M27.6 87.8s-6-27.9 11.7-31.7c17.8-3.8 19.1 31.4 19.1 31.4s-5.2 37.8 43.9 25.3c0 0 12.7-3.5 15.3 7.3 2.6 10.9-3.4 16.8-10.9 18.8-7.5 1.9-40.7 4.7-49.5 2.8.1 0-16.1-.6-29.6-53.9"/><path clip-path="url(#b)" fill="#332777" d="M52.3 155h7.5l6.4-12.6h-6.9zM113.5 155H106l-7.4-14.7 6.4-.8z"/><path clip-path="url(#b)" fill="#BC7D51" d="M83.1 24.8s1.3 2.7 3 3.7c1.7 1.1.1 3.4-1.1 3.2l-1.2-.2-.7-6.7zM76.9 22.7c.7.6 1.2 1.1 1.9 1.3.3.1.7.2 1 .3.4.1.8.1 1.2.1-.3.3-.7.5-1.2.6-.5.1-1 .1-1.4-.1-.9-.3-1.5-1.3-1.5-2.2M78 31.8c.2.7.4 1.2.7 1.4.1.1.3.2.6.3.3.1.6.2.9.4-.3.2-.6.4-1 .4s-.8-.1-1.2-.4c-.3-.3-.5-.8-.5-1.2.1-.3.3-.6.5-.9"/><path clip-path="url(#b)" fill="#c20175" d="M22.5 147.5s6-9.7.5-15c-4.1-2.9-8.7 2.2-11.3-.7s9.2-12.6 5.4-17.5c-3.8-4.9-11.4-5.2-15.7-1.1-4.4 4.2 2.7 27.4 8.2 34.3 0 0 7.2.9 12.9 0"/><path clip-path="url(#b)" fill="#2D0A7E" d="M16.4 147.9c-2.3-2.5-4.3-5.3-6-8.2-1.7-3-2.9-6.2-3.5-9.6-.3-1.7-.2-3.4-.1-5.1.3-1.7.6-3.4 1.1-5 .5-1.6 1-3.2 1.8-4.8.8-1.5 1.7-3 3-4.1-1.2 1.2-2 2.7-2.7 4.2-.7 1.5-1.2 3.1-1.6 4.8-.4 1.6-.7 3.3-1 4.9-.2 1.6-.2 3.3.1 5 .5 3.3 1.7 6.5 3.3 9.4.8 1.5 1.6 2.9 2.6 4.4.9 1.4 1.9 2.8 3 4.1"/></svg>