<svg xmlns="http://www.w3.org/2000/svg" xmlns:xlink="http://www.w3.org/1999/xlink" viewBox="0 0 144.6 187.5"><defs><path id="a" d="M0 0h144.6v187.5H0z"/></defs><clipPath id="b"><use xlink:href="#a" overflow="visible"/></clipPath><path clip-path="url(#b)" fill="#E8AEA6" d="M32.7 162.6c0 .7-5.5 1.3-12.4 1.3S8 163.3 8 162.6c0-.7 5.5-1.3 12.4-1.3s12.3.6 12.3 1.3"/><path clip-path="url(#b)" fill="#c20175" d="M17.9 162.9s-11-12-14.1-19.2c-3.1-7.2 2-8.5 4.5-4.7s7.2 12.4 8.5 2.1c1.3-10.3-.4-12.5 1.1-13.8 1.5-1.3 3.5-.4 4.9 4.5 1.4 4.9 6.3 5.9 7.6 1.3 1.3-4.7 4.5-14.9 9.2-14.4 4.7.6-.1 8 0 12.3.1 4.2 3.9 3.5 6.9-.3 3-3.8 13.1-15.5 17.6-12 4.5 3.5-1.8 8.2 0 12.7s1.6 11.9-7 9c-8.6-2.8-8 5.2-8.5 6.6-.4 1.4-2.5 6.2-7.9 3.8-5.4-2.4-8.3-1.3-6.3.7 2 2 5.5 4.1 3.7 5.2-1.8 1.1-8.9-2.5-11.8-.6s-4.1 6.6-4.1 6.6h-4.3z"/><path clip-path="url(#b)" fill="#2D0A7E" d="M60.2 129.1c-3.6 3.1-7.5 6-11.6 8.4-1 .6-2.1 1.2-3.2 1.6-1.1.5-2.2.9-3.4 1.3l-6.8 2.3c-2.3.8-4.5 1.6-6.6 2.6-2.1 1-4.2 2.2-5.7 4-.7.9-1.2 1.9-1.4 3.1-.2 1.2-.3 2.4-.5 3.5-.3 2.4-.5 4.7-.4 7.1-.3-2.4-.1-4.8 0-7.2.1-1.2.2-2.4.4-3.6.1-.6.2-1.2.4-1.8.3-.6.6-1.1.9-1.6 1.5-2 3.7-3.2 5.9-4.3 2.2-1.1 4.4-1.9 6.7-2.7l6.8-2.2c1.1-.4 2.3-.8 3.3-1.2 1.1-.5 2.1-1 3.2-1.5 2.1-1.1 4.1-2.4 6.1-3.7 2.1-1.3 4-2.7 5.9-4.1"/><path clip-path="url(#b)" fill="#E8AEA6" d="M144.6 175.5c0 4.2-32.4 7.6-72.3 7.6S0 179.7 0 175.5s32.4-7.6 72.3-7.6 72.3 3.4 72.3 7.6M123.7 186.2c0 .7-5.5 1.3-12.4 1.3S99 187 99 186.2s5.5-1.3 12.4-1.3 12.3.6 12.3 1.3"/><path clip-path="url(#b)" fill="#C0461D" d="M122.3 123.8H76.4L58.7 114h37.4z"/><path clip-path="url(#b)" fill="#DB5C23" d="M122.3 64.6v59.2h-6.1v-2.3L96.1 114V56.7s12.3-14.5 26.2 7.9"/><path clip-path="url(#b)" fill="#C0461D" d="M116.2 63.6v57.9L89.9 113V55.6s12.4-14.4 26.3 8"/><path clip-path="url(#b)" fill="#DB5C23" d="M76.4 123.8h46v7.7h-46z"/><path clip-path="url(#b)" fill="#C0461D" d="M58.7 114v6.3l17.7 11.2v-7.7z"/><path clip-path="url(#b)" fill="#1D184C" d="M58.7 120.4h1.9v33h-1.9z"/><path clip-path="url(#b)" fill="#F5D54F" d="M92.6 92.1s-18.2 10.3-28.2 11.3-7.9 19.7-8.3 23.1c-.3 3.3-2.5 24.8-2.5 24.8s2.6 2 5.1.9c0 0 13-32.5 15.2-45.4 0 0 20.3-8.1 29-16.6.1-.1-5.5 2-10.3 1.9"/><path clip-path="url(#b)" fill="#DBBF49" d="M105.6 88.9s12.9 15.2 0 26.8c-9.7 7.3-32.9 8.1-32.9 8.1s3 23.8-1.2 38.7c0 0-2.5 2.3-6.5.7 0 0-1.1-10.6-3.4-19 0 0 10.5-28.6 12.4-37.6 0 0 18-7.5 29-16.6 0 .1 1.2-.5 2.6-1.1"/><path clip-path="url(#b)" fill="#c20175" d="M77.5 15.9s-17.7 5.2-5.7 26.8c2.3 5.1-1.4 8.3.7 15.2 2.2 7 10.4 22.3 31.6 13.5 21.2-8.9 20-22.8 16.7-28.7-3.3-5.9-3.8-7-3.2-17.4.6-10.4-8-27.4-24.9-25.1-16.8 2.3-15.2 15.7-15.2 15.7"/><path clip-path="url(#b)" fill="#E2995F" d="M76.3 26.6s-1.2 23.8 14.9 22.6c16.1-1.2 16.4-12.9 15.7-13.9 0 0 5.1-4.1.2-8.7-2.4-2.5-4.9 2.5-4.9 2.5s-12.6 4.8-23.4-6.4c.1 0-.6 2.6-2.5 3.9"/><path clip-path="url(#b)" fill="#E2995F" d="M92.7 49.1s.9 4.1 0 6.4c-.9 2.3 2 5.7 5 2.3 3-3.3 2.6-5.5 2.6-5.5s-.8-1.9-.6-5.1c.1 0-3.2 1.3-7 1.9"/><path clip-path="url(#b)" fill="#1D184C" d="M56.4 94.5s22.1-.1 25.5-19.7c3.5-19.6 10.8-19.3 10.8-19.3s-.1 3.3 3.2 3.6c0 0-8.4 30.4-14.7 33.6-6.2 3.2-18.4 6.2-23.7 6.2.1 0-2.1-2.2-1.1-4.4"/><path clip-path="url(#b)" fill="#332777" d="M92.6 92.1s0-11.5-1.9-14.9c-1.9-3.4-4.4-7.5-2.2-13.3 2.2-5.8 4.3-8.4 4.3-8.4l7.6-3.2s4.8-1.1 8.1.9l-2.9 35.7s-6.6 3.7-13 3.2"/><path clip-path="url(#b)" fill="#5d22b1" d="M11 103v3.9c0 1.4 16.5 2.5 36.8 2.5 20.3 0 36.8-1.1 36.8-2.5V103H11z"/><path clip-path="url(#b)" fill="#2D0A7E" d="M84.6 103c0 1.4-16.5 2.5-36.8 2.5-20.3 0-36.8-1.1-36.8-2.5s16.5-2.5 36.8-2.5c20.3 0 36.8 1.2 36.8 2.5"/><path clip-path="url(#b)" fill="#E2995F" d="M56.4 94.5s-4.9-.9-6.3-.7c-1.5.1-4.1 2.8-6.3 3.6-2.2.8.9 2.5 4.4 1.9 3.6-.6 5.7.4 9.4-.4 0 0-1.9-1.8-1.2-4.4"/><path clip-path="url(#b)" fill="#1D184C" d="M18.7 172.7v2.8c0 1 11.9 1.8 26.7 1.8 14.7 0 26.7-.8 26.7-1.8v-2.8H18.7zM17.2 75.4l9.8 26.9h31.8l-9.9-26.9z"/><path clip-path="url(#b)" fill="#2D0A7E" d="M72.1 172.7c0 1-11.9 1.8-26.7 1.8s-26.7-.8-26.7-1.8 11.9-1.8 26.7-1.8 26.7.9 26.7 1.8"/><path clip-path="url(#b)" fill="#5d22b1" d="M43 109.4h4.8v62.4H43z"/><path clip-path="url(#b)" fill="#464391" d="M53.7 151.3s-4.8 7.3-8.3 9.7c-3.4 2.4-2.3 7 2.4 4.1 4.6-2.8 7.3-6 9-6.5 1.7-.5 2-6.5 2-6.5s-3.4.3-5.1-.8M66.1 163.7s1.8 1.8-2.1 3.7-10.7 3.7-9.5 5.3c1.2 1.7 9.8-.7 12.4-1 2.6-.3 5.4-1.5 5.1-3.2-.3-1.7-.6-5.9-.6-5.9s-1.3 1.8-5.3 1.1"/><path clip-path="url(#b)" fill="#1D184C" d="M58.8 102.3h20.9V101H58.3z"/><path clip-path="url(#b)" fill="#BC7D51" d="M83.7 34.6s.3 3-.4 4.9c-.8 1.9.8 3.3 1.8 3 1.1-.2 1.4-.8 1.4-.8l-2.8-7.1z"/><path clip-path="url(#b)" fill="#464391" d="M78.6 102.2s26.8-11 27.4-18.7c.6-7.7-2.6-22.7-.9-26.4 1.7-3.8 3.3-3.9 3.3-3.9s5.7 0 6.5 7.1c.9 7.1.6 28-7.8 33.2-8.3 5.2-27.2 11.5-27.2 11.5s-2.3-.5-1.3-2.8"/><path clip-path="url(#b)" fill="#E2995F" d="M78.6 102.2s-4.4-.2-6.1 0c-1.7.2-4.6 2.8-6.4 3.8-1.7 1-1.3 2.5-.4 2.5 0 0 2.4.9 6.1 0 3.7-.9 8.1-3.5 8.1-3.5s-2.2-.7-1.3-2.8"/><path clip-path="url(#b)" fill="#BC7D51" d="M78.4 36c.4.2.8.4 1.1.6.3.2.6.3.8.3.2 0 .4 0 .7-.2.1-.1.3-.2.5-.3.2-.1.3-.2.5-.4 0 .5-.1.9-.3 1.3-.2.4-.8.8-1.5.7-.6-.1-1.1-.4-1.3-.8-.4-.3-.5-.7-.5-1.2M87.6 34.2c1.2.1 2.2 0 2.9-.5.4-.2.7-.5 1.1-.9.2-.2.3-.4.5-.6.2-.2.3-.4.6-.7v.9l-.3.9c-.3.6-.7 1.1-1.3 1.4-.6.3-1.3.4-1.9.3-.6 0-1.2-.3-1.6-.8M87.6 44.1c.8-.6 1.5-1.1 1.9-1.6.2-.3.3-.6.4-.9.1-.4.1-.8.2-1.4.4.4.7.8.7 1.4.1.5-.1 1.2-.4 1.7-.4.5-.9.8-1.4.9-.4.1-.9.1-1.4-.1"/><path clip-path="url(#b)" fill="#1D184C" d="M76.4 131.5h1.9v45.8h-1.9zM120.4 131.5h1.9v45.8h-1.9zM89.6 131.5h1.9v22.2h-1.9z"/></svg>