<svg fill="#590898" xmlns="http://www.w3.org/2000/svg" viewBox="0 0 297 297"><path d="M17.555 166.935h262.508c5.431 0 9.834-4.403 9.834-9.834V18.077c0-5.43-4.403-9.833-9.834-9.833H17.555c-5.431 0-9.834 4.403-9.834 9.833V157.1c0 5.431 4.403 9.835 9.834 9.835zm9.834-139.024H270.23v119.355H27.389V27.911z"/><path d="M148.811 31.415c-30.967 0-56.16 25.199-56.16 56.172 0 30.975 25.193 56.174 56.16 56.174 30.965 0 56.155-25.199 56.155-56.174.001-30.973-25.19-56.172-56.155-56.172zm0 92.679c-20.122 0-36.493-16.376-36.493-36.507 0-20.128 16.371-36.505 36.493-36.505 20.119 0 36.488 16.377 36.488 36.505.001 20.131-16.368 36.507-36.488 36.507z"/><path d="M161.893 83.819L140.367 70.56c-1.365-.839-3.079-.876-4.479-.095-1.399.781-2.267 2.26-2.267 3.863l.001 26.518c0 1.604.867 3.082 2.267 3.864.672.375 1.416.562 2.158.562.806 0 1.61-.22 2.321-.658l21.525-13.26c1.308-.806 2.105-2.232 2.105-3.768-.001-1.535-.798-2.962-2.105-3.767zM180.481 242.691c5.65-6.993 9.045-15.883 9.045-25.555 0-22.457-18.265-40.727-40.714-40.727-22.454 0-40.72 18.271-40.72 40.727 0 9.671 3.394 18.561 9.045 25.554-10.278 8.997-16.456 22.13-16.456 36.232 0 5.43 4.403 9.833 9.834 9.833h76.59c5.431 0 9.833-4.403 9.833-9.833 0-14.101-6.177-27.233-16.457-36.231zm-31.668-46.614c11.605 0 21.046 9.447 21.046 21.059 0 11.611-9.44 21.059-21.046 21.059-11.608 0-21.053-9.447-21.053-21.059 0-11.612 9.444-21.059 21.053-21.059zm-26.71 73.012c2.142-5.81 6.147-10.827 11.456-14.201 4.714 1.912 9.86 2.975 15.253 2.975 5.39 0 10.534-1.063 15.247-2.975 5.309 3.376 9.314 8.393 11.457 14.201h-53.413zM280.544 242.69c5.65-6.993 9.044-15.883 9.044-25.554 0-22.457-18.265-40.727-40.717-40.727-22.451 0-40.717 18.271-40.717 40.727 0 9.671 3.394 18.561 9.045 25.554-10.279 8.997-16.457 22.13-16.457 36.232 0 5.43 4.402 9.833 9.833 9.833h76.591c5.431 0 9.834-4.403 9.834-9.833 0-14.101-6.178-27.234-16.456-36.232zm-31.673-46.613c11.606 0 21.05 9.447 21.05 21.059 0 11.611-9.443 21.059-21.05 21.059-11.607 0-21.049-9.447-21.049-21.059 0-11.612 9.443-21.059 21.049-21.059zm-26.707 73.012c2.142-5.81 6.146-10.827 11.457-14.201 4.714 1.912 9.859 2.975 15.25 2.975 5.392 0 10.537-1.063 15.25-2.975 5.31 3.374 9.315 8.391 11.457 14.201h-53.414zM79.802 242.691c5.652-6.993 9.046-15.883 9.046-25.555 0-22.457-18.266-40.727-40.716-40.727-22.453 0-40.719 18.271-40.719 40.727 0 9.671 3.393 18.561 9.045 25.554C6.179 251.688 0 264.821 0 278.923c0 5.43 4.403 9.833 9.834 9.833h76.591c5.431 0 9.833-4.403 9.833-9.833 0-14.102-6.178-27.234-16.456-36.232zm-31.67-46.614c11.606 0 21.048 9.447 21.048 21.059 0 11.611-9.441 21.059-21.048 21.059-11.607 0-21.052-9.447-21.052-21.059 0-11.612 9.444-21.059 21.052-21.059zm-26.71 73.012c2.142-5.81 6.148-10.827 11.458-14.201 4.714 1.912 9.859 2.975 15.252 2.975 5.39 0 10.535-1.063 15.249-2.975 5.309 3.375 9.313 8.392 11.455 14.201H21.422z"/></svg>